<svg width="20" height="20" viewBox="0 0 20 20" fill="none" xmlns="http://www.w3.org/2000/svg">
<path d="M10.333 0C5.75 0 2 3.75 2 8.333C2 12.916 5.75 16.666 10.333 16.666C14.916 16.666 18.666 12.916 18.666 8.333C18.666 3.75 14.916 0 10.333 0ZM13.291 11.5L9.891 9.408C9.76859 9.33488 9.66733 9.23115 9.59719 9.107C9.52705 8.98286 9.49045 8.84259 9.491 8.7V4.791C9.49538 4.62507 9.56386 4.46729 9.68207 4.35076C9.80028 4.23423 9.95902 4.16801 10.125 4.166C10.2904 4.16731 10.4486 4.23357 10.5655 4.3505C10.6824 4.46743 10.7487 4.62564 10.75 4.791V8.499L13.95 10.424C14.25 10.608 14.35 10.999 14.166 11.3C14.0755 11.4415 13.9331 11.5417 13.7694 11.5791C13.6058 11.6165 13.4339 11.5881 13.291 11.5Z" fill="#FF3300"/>
</svg>
