<svg width="32" height="31" viewBox="0 0 32 31" fill="none" xmlns="http://www.w3.org/2000/svg">
<path d="M28 9.66667H26V6.61905C26 2.41333 21.52 -1 16 -1C10.48 -1 6 2.41333 6 6.61905V9.66667H4C1.8 9.66667 0 11.0381 0 12.7143V27.9524C0 29.6286 1.8 31 4 31H28C30.2 31 32 29.6286 32 27.9524V12.7143C32 11.0381 30.2 9.66667 28 9.66667ZM16 23.381C13.8 23.381 12 22.0095 12 20.3333C12 18.6571 13.8 17.2857 16 17.2857C18.2 17.2857 20 18.6571 20 20.3333C20 22.0095 18.2 23.381 16 23.381ZM10 9.66667V6.61905C10 4.08952 12.68 2.04762 16 2.04762C19.32 2.04762 22 4.08952 22 6.61905V9.66667H10Z" fill="url(#paint0_linear_66_178)"/>
<defs>
<linearGradient id="paint0_linear_66_178" x1="16" y1="-1" x2="16" y2="31" gradientUnits="userSpaceOnUse">
<stop stop-color="#FE0000"/>
<stop offset="1" stop-color="#FD3300"/>
</linearGradient>
</defs>
</svg>
